<?xml version="1.0" encoding="UTF-8"?>
<svg id="_Слой_1" data-name="Слой 1" xmlns="http://www.w3.org/2000/svg" viewBox="0 0 251 39">
  <path d="m204.56,0h48.49v40h-33.45c-.09-.41-.14-.83-.29-1.22-3.16-8.26-6.35-16.52-9.5-24.78C208.03,9.34,206.31,4.67,204.56,0Z"/>
  <path d="m80.85,40c.46-3.07.91-6.15,1.39-9.37h-21.59v-6.73h18.96v-11.69h-18.96v-4.7h19.92V0h4.82c-.02,2.12-.06,4.24-.06,6.36,0,10.65,0,21.3,0,31.95,0,.56.04,1.13.06,1.69h-4.54Z"/>
  <path d="m123.13,40V0C124.08,0,125.02,0,125.97,0c3.69,13.33,7.38,26.67,11.07,40h-13.9Z"/>
  <path d="m191.79,0c-1.84,4.94-3.69,9.87-5.51,14.81-3.09,8.39-6.16,16.79-9.24,25.19h-6.81c.91-3.16,1.78-6.32,2.73-9.47,2.97-9.82,5.98-19.62,8.97-29.44.11-.35.14-.73.21-1.09,3.22,0,6.43,0,9.65,0Z"/>
  <path d="m48.79,0v40h-16.46c6.18-3.48,9.97-8.75,11.18-15.68,1.53-8.72.13-16.73-6.61-23.15C36.51.79,36.13.39,35.74,0c4.35,0,8.7,0,13.05,0Z"/>
  <path d="m5.38,0v40H0V0h5.38Z"/>
  <path d="m189.52,40c1.18-3.23,2.38-6.45,3.51-9.69.28-.81.7-1.07,1.54-1.05,2.41.05,4.82.06,7.22,0,.9-.02,1.32.28,1.63,1.13,1.18,3.22,2.45,6.41,3.69,9.61h-17.59Z"/>
  <path d="m97.31,40c-.04-2.4-.1-4.81-.1-7.21-.02-4.48,0-8.96,0-13.9.62.9,1.02,1.44,1.38,2.01,3.87,6.03,7.73,12.07,11.59,18.11.2.31.31.66.47,1h-13.34Z"/>
  <path d="m111.21,0v18.03c-.08.02-.16.05-.24.07-1.79-2.74-3.59-5.48-5.36-8.24C103.49,6.58,101.4,3.29,99.3,0c3.97,0,7.94,0,11.92,0Z"/>
  <path d="m148.38,40c1.71-5.98,3.42-11.95,5.24-18.33.25.81.4,1.24.52,1.69,1.47,5.36,2.94,10.72,4.41,16.07.05.18.03.37.04.56h-10.21Z"/>
  <path d="m169.95,0c-1.69,5.71-3.38,11.41-5.07,17.12-.09,0-.17-.02-.26-.03C163.08,11.4,161.55,5.7,160.02,0c3.31,0,6.62,0,9.93,0Z"/>
  <path d="m147.53,0c-.89,3.4-1.76,6.81-2.67,10.21-.57,2.12-1.21,4.22-1.93,6.72C141.27,11.02,139.72,5.51,138.17,0c3.12,0,6.24,0,9.36,0Z"/>
  <path d="m17.16,30.58c0-1.19,0-2.27,0-3.35,0-6.14.02-12.28-.02-18.43,0-1.03.26-1.46,1.35-1.38,1.65.12,3.31.05,4.95.19,3.95.34,6.52,2.47,7.79,6.2,1.14,3.38,1.1,6.77.09,10.17-1.2,4.04-3.97,6.22-8.12,6.57-1.92.16-3.86.03-6.03.03Z"/>
</svg>